<svg version="1.1" xmlns="http://www.w3.org/2000/svg" viewBox="0 0 1024 1024" width="1024" height="1024">
  <g transform="translate(0.000000,1024.000000) scale(0.100000,-0.100000)" fill="#1E9E8A" stroke="none">
    <path d="M4656 9335 c-48 -17 -112 -78 -126 -121 -8 -22 -8 -50 0 -95 17 -103
23 -429 11 -629 -21 -358 -147 -1234 -184 -1278 -6 -8 -64 -53 -127 -100 -247
-185 -511 -430 -728 -677 -58 -66 -117 -133 -131 -150 -27 -31 -194 -250 -292
-385 -101 -137 -338 -518 -481 -770 -14 -25 -58 -101 -97 -170 -81 -140 -302
-584 -351 -703 l-32 -77 -61 0 c-94 -1 -270 -10 -386 -21 -58 -5 -139 -9 -181
-9 -183 0 -320 -59 -364 -158 l-18 -39 32 -66 c39 -82 102 -141 174 -161 89
-25 265 -41 449 -40 205 1 187 15 157 -126 -66 -302 -75 -644 -24 -898 92
-451 455 -839 974 -1040 246 -96 524 -151 865 -171 368 -22 553 -21 870 8 50
4 97 4 106 0 10 -5 18 -26 22 -56 3 -26 17 -131 31 -232 14 -101 26 -200 26
-220 0 -97 59 -180 164 -230 51 -24 71 -28 107 -24 44 6 131 54 159 88 41 50
51 167 24 290 -27 124 -33 168 -44 305 -13 154 -13 153 68 165 107 15 547 88
672 111 264 50 777 153 865 174 22 5 97 23 168 40 315 74 391 93 522 126 322
81 563 160 729 238 126 60 158 92 81 84 -25 -3 -45 -2 -45 3 0 5 9 9 20 9 14
0 20 6 18 16 -2 11 13 22 52 36 30 11 59 24 65 29 5 5 19 9 31 9 23 0 38 12
28 22 -2 3 -29 0 -58 -7 -31 -7 -59 -9 -68 -4 -9 5 -47 2 -93 -6 -83 -16 -113
-13 -49 4 22 6 46 15 54 21 23 15 -14 13 -104 -6 -85 -17 -127 -14 -53 4 26 7
47 17 47 23 0 6 -7 8 -16 5 -24 -9 -88 -23 -189 -41 -49 -9 -207 -43 -350 -75
-143 -32 -341 -75 -440 -95 -99 -20 -196 -40 -216 -46 -20 -5 -94 -20 -165
-33 -71 -14 -183 -36 -249 -50 -178 -37 -965 -174 -1160 -201 -93 -14 -173
-21 -177 -17 -4 4 -9 124 -12 267 -5 219 -19 1511 -21 1815 l0 94 115 17 c131
19 270 38 555 74 110 14 261 35 335 45 162 23 368 48 505 60 55 5 116 12 135
15 19 3 98 12 175 20 77 8 228 23 335 34 107 11 256 25 330 31 250 20 345 32
445 55 55 13 130 29 167 36 48 9 68 17 71 30 3 9 15 19 28 21 35 5 34 25 -2
33 -31 7 -32 8 -14 21 10 8 17 15 14 17 -30 22 -62 35 -102 41 -26 4 -62 13
-80 20 -18 8 -53 17 -79 20 -27 4 -47 12 -45 18 8 42 -519 46 -908 8 -55 -6
-217 -21 -360 -35 -282 -28 -570 -61 -875 -101 -107 -13 -231 -29 -275 -34
-44 -5 -168 -20 -275 -34 -107 -14 -198 -22 -202 -18 -3 4 -9 106 -12 227 -3
121 -13 375 -21 565 -8 190 -19 453 -25 585 -5 132 -12 263 -15 290 -3 28 -10
127 -15 220 -5 94 -16 278 -25 410 -8 132 -15 279 -15 327 l0 86 38 14 c55 19
180 16 219 -5 38 -20 72 -51 100 -93 28 -40 63 -176 73 -289 10 -104 4 -401
-10 -525 -14 -125 -12 -169 10 -216 34 -68 154 -134 246 -134 58 0 119 46 149
113 43 95 58 405 34 708 -18 229 -49 341 -130 466 -65 100 -222 231 -341 285
-96 44 -237 61 -365 43 l-51 -7 -7 169 c-4 92 -4 402 1 688 12 783 13 752 -15
803 -20 37 -37 50 -112 88 -96 48 -135 53 -203 29z m-390 -2652 c-3 -10 -17
-72 -30 -138 -117 -569 -278 -1268 -362 -1570 -103 -367 -124 -445 -139 -505
-29 -117 -58 -200 -69 -200 -6 0 -40 -5 -76 -10 -82 -12 -572 -74 -785 -100
-88 -11 -182 -20 -209 -20 l-48 0 6 31 c3 16 18 58 34 92 16 34 41 91 57 127
178 397 538 1028 793 1389 196 277 408 526 655 769 147 144 185 174 173 135z
m398 -653 c9 -212 18 -421 21 -465 10 -144 24 -495 30 -740 3 -132 8 -275 10
-318 6 -95 16 -89 -200 -117 -88 -12 -209 -28 -269 -36 -60 -8 -111 -12 -113
-10 -4 4 48 214 138 561 106 408 248 1011 320 1362 18 90 36 159 40 155 4 -4
14 -180 23 -392z m79 -2457 c9 -608 9 -1093 0 -1093 -5 1 -30 47 -57 103 -155
324 -427 670 -708 903 -51 42 -95 78 -97 80 -2 2 3 12 11 21 31 36 98 206 124
315 7 32 -21 25 314 73 135 19 268 39 295 44 28 5 64 9 81 10 l31 1 6 -457z
m-1203 280 c-1 -25 -18 -34 -43 -22 -15 7 -24 16 -21 20 6 11 64 12 64 2z
m-730 -125 c50 -11 212 -63 250 -80 14 -6 34 -14 45 -19 297 -116 554 -288
805 -539 114 -114 139 -142 211 -240 167 -225 281 -445 397 -760 27 -74 55
-157 62 -183 15 -58 8 -66 -55 -67 -22 0 -146 -5 -275 -10 -155 -6 -290 -6
-395 1 -637 40 -996 170 -1268 458 -147 156 -228 329 -266 571 -21 128 -11
428 20 590 18 97 60 255 69 264 12 12 252 35 310 29 25 -2 65 -9 90 -15z"/>
  </g>
</svg>